<svg width="472" height="83" viewBox="0 0 472 83" fill="none" xmlns="http://www.w3.org/2000/svg">
<path d="M0.770375 56.864H10.6584C11.8104 55.392 12.5464 53.696 12.8664 51.776C13.1864 49.792 13.3464 45.824 13.3464 39.872V0.799995H26.4984V35.36C26.4984 39.648 26.4024 42.976 26.2104 45.344C26.0824 47.712 25.6984 50.4 25.0584 53.408C23.8424 59.104 20.8024 63.968 15.9384 68H0.770375V56.864ZM56.8509 29.024H49.6509C48.6909 30.176 47.8909 31.776 47.2509 33.824C46.6749 35.872 46.3869 37.856 46.3869 39.776H60.1149C60.2429 37.856 59.9869 35.872 59.3469 33.824C58.7069 31.712 57.8749 30.112 56.8509 29.024ZM69.9069 57.92V68H45.5229C41.0429 64.992 37.8749 61.28 36.0189 56.864C34.2269 52.384 33.3309 47.872 33.3309 43.328C33.3309 32.832 37.2989 24.704 45.2349 18.944H60.7869C65.0749 22.08 67.9869 25.408 69.5229 28.928C71.0589 32.448 71.8269 36 71.8269 39.584C71.8269 43.168 71.5389 46.24 70.9629 48.8H47.0589C47.2509 50.272 47.7949 51.968 48.6909 53.888C49.6509 55.744 50.6749 57.088 51.7629 57.92H69.9069ZM90.9406 0.799995V68H78.2686V0.799995H90.9406ZM122.311 45.824H112.039C110.695 47.488 110.023 49.568 110.023 52.064C110.023 54.56 110.727 56.512 112.135 57.92H122.311V45.824ZM101.671 18.944H125.479C129.319 21.248 131.847 23.904 133.063 26.912C134.279 29.856 134.887 33.888 134.887 39.008V53.408C134.887 58.72 135.015 63.584 135.271 68H124.327L122.599 64.544C120.103 66.848 116.583 68 112.039 68H105.991C100.551 64.416 97.8309 59.264 97.8309 52.544C97.8309 45.76 100.615 40.416 106.183 36.512H115.207C117.703 36.512 120.039 37.28 122.215 38.816V34.016C122.215 31.52 121.127 29.856 118.951 29.024H101.671V18.944ZM143.144 18.944H155.72V63.104C155.72 67.968 155.144 71.84 153.992 74.72C152.84 77.6 150.44 80.16 146.792 82.4H134.12V72.32H140.744C142.344 71.36 143.144 69.824 143.144 67.712V18.944ZM143.144 0.799995H155.72V14.72H143.144V0.799995ZM187.092 45.824H176.82C175.476 47.488 174.804 49.568 174.804 52.064C174.804 54.56 175.508 56.512 176.916 57.92H187.092V45.824ZM166.452 18.944H190.26C194.1 21.248 196.628 23.904 197.844 26.912C199.06 29.856 199.668 33.888 199.668 39.008V53.408C199.668 58.72 199.796 63.584 200.052 68H189.108L187.38 64.544C184.884 66.848 181.364 68 176.82 68H170.772C165.332 64.416 162.612 59.264 162.612 52.544C162.612 45.76 165.396 40.416 170.964 36.512H179.988C182.484 36.512 184.82 37.28 186.996 38.816V34.016C186.996 31.52 185.908 29.856 183.732 29.024H166.452V18.944ZM230.293 18.944H239.413C242.229 22.528 244.149 26.112 245.173 29.696C246.197 33.28 246.709 37.76 246.709 43.136V68H233.941V42.176C233.941 36.096 233.109 31.712 231.445 29.024H220.693V68H207.925V0.799995H220.693V22.4C222.101 21.12 223.413 20.224 224.629 19.712C225.909 19.2 227.797 18.944 230.293 18.944ZM255.092 68V0.799995H268.244V29.12H268.724L280.724 0.799995H294.26L280.244 32.864L294.932 68H280.34L268.916 38.624H268.244V68H255.092ZM321.248 45.824H310.976C309.632 47.488 308.96 49.568 308.96 52.064C308.96 54.56 309.664 56.512 311.072 57.92H321.248V45.824ZM300.608 18.944H324.416C328.256 21.248 330.784 23.904 332 26.912C333.216 29.856 333.824 33.888 333.824 39.008V53.408C333.824 58.72 333.952 63.584 334.208 68H323.264L321.536 64.544C319.04 66.848 315.52 68 310.976 68H304.928C299.488 64.416 296.768 59.264 296.768 52.544C296.768 45.76 299.552 40.416 305.12 36.512H314.144C316.64 36.512 318.976 37.28 321.152 38.816V34.016C321.152 31.52 320.064 29.856 317.888 29.024H300.608V18.944ZM341.793 41.024V18.944H354.561V41.12C354.561 46.688 355.681 51.328 357.921 55.04H363.585C365.697 51.392 366.753 46.752 366.753 41.12V18.944H379.521V40.352C379.521 45.152 378.881 49.376 377.601 53.024C376.385 56.672 374.369 60.8 371.553 65.408L365.121 75.872C363.969 77.856 362.753 79.328 361.473 80.288C360.193 81.248 358.529 81.952 356.481 82.4H341.313V72.32H351.681C353.025 71.936 354.145 71.264 355.041 70.304C355.937 69.344 356.865 67.968 357.825 66.176L358.401 65.12H351.777C348.705 62.624 346.273 59.264 344.481 55.04C342.689 50.752 341.793 46.08 341.793 41.024ZM404.448 68H394.368C391.552 64.416 389.632 60.832 388.608 57.248C387.584 53.664 387.072 49.184 387.072 43.808V18.944H399.84V44.768C399.84 50.592 400.992 54.976 403.296 57.92H412.224V18.944H424.992V68H414.912L413.184 64.544C410.752 66.848 407.84 68 404.448 68ZM455.574 18.944H464.694C467.51 22.528 469.43 26.112 470.454 29.696C471.478 33.28 471.99 37.76 471.99 43.136V68H459.222V42.176C459.222 36.096 458.39 31.712 456.726 29.024H445.974V68H433.206V0.799995H445.974V22.4C447.382 21.12 448.694 20.224 449.91 19.712C451.19 19.2 453.078 18.944 455.574 18.944Z" fill="#4774E7"/>
</svg>
